<svg width="64" height="61" viewBox="0 0 64 61" fill="none" xmlns="http://www.w3.org/2000/svg">
<path id="Caixa" d="M20.8304 0C15.2428 0 10.3635 5.5168 9.55952 12.6331H8.38095C7.54057 12.6331 6.85714 13.5047 6.85714 14.5766V15.5484H4.57143C2.05029 15.5484 0 18.1634 0 21.379V31.5428C0 32.3688 0.525726 33.0403 1.17411 33.0403H2.28423V53.309C2.28423 57.1358 4.72505 60.25 7.72619 60.25H56.2708C59.2712 60.25 61.7143 57.1358 61.7143 53.309V33.0403H62.9524C63.5299 33.0403 64 32.4407 64 31.7041V21.379C64 18.1644 61.9497 15.5484 59.4286 15.5484H57.1429V14.5766C57.1429 13.5047 56.4594 12.6331 55.619 12.6331H54.4033C53.5999 5.51685 48.72 0 43.1324 0H20.8304ZM20.8304 0.971774H43.1324C48.2235 0.971774 52.8497 6.15424 53.6443 12.6331H50.0342C49.3234 8.82079 46.5869 4.85887 43.1964 4.85887H20.7693C17.4063 4.85887 14.6878 8.82079 13.9777 12.6331H10.3185C11.1131 6.15424 15.7393 0.971774 20.8304 0.971774ZM20.7693 5.83064H43.1964C46.0541 5.83064 48.5336 9.24674 49.2455 12.6331H48.7619C47.9215 12.6331 47.2381 13.5047 47.2381 14.5766V15.5484H16.7619V14.5766C16.7619 13.5047 16.0785 12.6331 15.2381 12.6331H14.7664C15.4664 9.2588 17.8464 5.83064 20.7693 5.83064ZM8.38095 13.6048H15.2381C15.6587 13.6048 16 14.0412 16 14.5766V15.5484H7.61905V14.5766C7.61905 14.0412 7.96038 13.6048 8.38095 13.6048ZM48.7619 13.6048H55.619C56.0396 13.6048 56.381 14.0412 56.381 14.5766V15.5484H48V14.5766C48 14.0412 48.3413 13.6048 48.7619 13.6048ZM4.57143 17.4919H59.4286C61.1093 17.4919 62.4762 19.2353 62.4762 21.379H59.8095C59.5992 21.379 59.4286 21.5967 59.4286 21.8649C59.4286 22.1331 59.5992 22.3508 59.8095 22.3508H62.4762V31.0968H51.6548L52.5104 28.8837C52.5691 28.734 52.5619 28.5539 52.4926 28.4111C52.4225 28.2682 52.3015 28.1814 52.1696 28.1814H44.5908C44.4582 28.1814 44.3365 28.2701 44.2664 28.413C44.1978 28.5568 44.1913 28.735 44.25 28.8856L45.119 31.0968H19.6548L20.5104 28.8837C20.5691 28.734 20.5619 28.5539 20.4926 28.4111C20.4225 28.2682 20.3015 28.1814 20.1696 28.1814H12.5908C12.4582 28.1814 12.3365 28.2701 12.2664 28.413C12.1978 28.5568 12.1913 28.735 12.25 28.8856L13.119 31.0968H1.52381V21.8649V21.379C1.52381 19.2353 2.89067 17.4919 4.57143 17.4919ZM1.52381 21.8649C1.52381 22.1331 1.69448 22.3508 1.90476 22.3508H51.4286C51.6396 22.3508 51.8095 22.1331 51.8095 21.8649C51.8095 21.5967 51.6389 21.379 51.4286 21.379H1.90476C1.69448 21.379 1.52381 21.5967 1.52381 21.8649ZM53.7143 21.379C53.504 21.379 53.3333 21.5967 53.3333 21.8649C53.3333 22.1331 53.504 22.3508 53.7143 22.3508H58.2857C58.4968 22.3508 58.6667 22.1331 58.6667 21.8649C58.6667 21.5967 58.496 21.379 58.2857 21.379H53.7143ZM13.2083 29.1532H19.5565L18.3244 32.3399C18.2985 32.407 18.2857 32.4796 18.2857 32.5544V35.9556H16.7619V33.5262C16.7619 33.258 16.5912 33.0403 16.381 33.0403C16.1707 33.0403 16 33.258 16 33.5262V35.9556H14.4792L14.5 32.5582C14.5008 32.4814 14.4865 32.407 14.4598 32.338L13.2083 29.1532ZM45.2083 29.1532H51.5565L50.3244 32.3399C50.2985 32.407 50.2857 32.4796 50.2857 32.5544V35.9556H48.7619V33.5262C48.7619 33.258 48.5912 33.0403 48.381 33.0403C48.1707 33.0403 48 33.258 48 33.5262V35.9556H46.4792L46.5 32.5582C46.5008 32.4814 46.4865 32.407 46.4598 32.338L45.2083 29.1532ZM3.80952 33.0403H13.7351L13.7143 36.4377C13.7143 36.567 13.752 36.6927 13.8244 36.7851C13.8953 36.8774 13.9939 36.9274 14.0952 36.9274H18.6667C18.8777 36.9274 19.0469 36.7107 19.0461 36.4415V33.0403H45.7351L45.7143 36.4377C45.7143 36.567 45.752 36.6927 45.8244 36.7851C45.8953 36.8774 45.9939 36.9274 46.0952 36.9274H50.6667C50.8777 36.9274 51.0469 36.7107 51.0461 36.4415V33.0403H60.1905V47.6321C56.111 48.1609 52.8574 52.7283 52.7128 58.3064H11.7024C11.7026 58.2999 11.7054 58.294 11.7054 58.2874C11.7054 52.7759 8.22069 48.1838 3.80952 47.672V33.0403ZM60.1905 48.6096V53.309C60.1905 56.065 58.4331 58.3064 56.2723 58.3064H53.4747C53.6168 53.2674 56.5268 49.1379 60.1905 48.6096ZM3.80952 48.6456C7.80209 49.1522 10.9442 53.3095 10.9435 58.2874C10.9433 58.2906 10.9437 58.2999 10.9435 58.3064H7.72768C5.56692 58.3064 3.80952 56.065 3.80952 53.309V48.6456Z" fill="#765421"/>
</svg>
